<?xml version="1.0" encoding="UTF-8" standalone="no"?>
<svg width="646px" height="183px" viewBox="0 0 646 183" version="1.1" xmlns="http://www.w3.org/2000/svg" xmlns:xlink="http://www.w3.org/1999/xlink" xmlns:sketch="http://www.bohemiancoding.com/sketch/ns">
    <!-- Generator: Sketch 3.3.2 (12043) - http://www.bohemiancoding.com/sketch -->
    <title>Artboard 1</title>
    <desc>Created with Sketch.</desc>
    <defs></defs>
    <g id="Page-1" stroke="none" stroke-width="1" fill="none" fill-rule="evenodd" sketch:type="MSPage">
        <g id="Artboard-1" sketch:type="MSArtboardGroup">
            <g id="AdventurOS-+-アドベンチュルス-+-Line-+-Line-Copy" sketch:type="MSLayerGroup" transform="translate(14.000000, 19.000000)">
                <g id="Line-+-Line-Copy" transform="translate(102.000000, 103.000000)" stroke="#FFFFFF" stroke-width="5" stroke-linecap="square" sketch:type="MSShapeGroup">
                    <path d="M0.5,2.5 L82.2434998,2.5" id="Line"></path>
                    <path d="M330.5,2.5 L412.2435,2.5" id="Line-Copy"></path>
                </g>
                <path d="M89.6748047,94.6621094 C89.4514963,95.1087262 89.0686876,95.6669888 88.5263672,96.3369141 C88.1435528,96.6240249 87.6650419,96.7835285 87.0908203,96.8154297 C84.6982302,97.0068369 82.8958394,97.0068369 81.6835938,96.8154297 C81.2688781,96.4645165 80.6149133,96.0338567 79.7216797,95.5234375 C79.5621737,95.8105483 79.6578758,96.2412081 80.0087891,96.8154297 C79.4983698,96.7516273 78.7646532,96.5921237 77.8076172,96.3369141 C77.6800124,95.9221984 77.3929059,95.3798862 76.9462891,94.7099609 C74.872711,94.9013681 73.3095756,94.8535171 72.2568359,94.5664062 C72.0335275,94.5026038 71.0446051,93.7210361 69.2900391,92.2216797 C67.3440658,90.5628172 65.0950648,87.7555536 62.5429688,83.7998047 C61.7135375,82.4918554 59.6240402,78.8870738 56.2744141,72.9853516 C55.795896,72.1559203 55.5566406,71.3743526 55.5566406,70.640625 C56.7050839,70.2897118 57.7897084,70.3694636 58.8105469,70.8798828 C59.2571637,71.390302 59.9111285,71.964515 60.7724609,72.6025391 C60.8681645,72.4111319 60.7724624,71.7890678 60.4853516,70.7363281 C60.4215492,70.7682293 60.8203082,70.7841797 61.6816406,70.7841797 C61.9368502,70.5289701 62.0644531,70.2259132 62.0644531,69.875 C60.0227763,69.3007784 57.2633637,68.8382179 53.7861328,68.4873047 C52.1591716,66.318023 50.0696742,63.3991069 47.5175781,59.7304688 C47.4218745,59.3476543 47.1826191,58.7893917 46.7998047,58.0556641 C46.7360023,58.0237629 46.3053425,58.0078125 45.5078125,58.0078125 L23.0175781,58.4384766 C22.0286409,58.3746742 21.3427754,58.8053339 20.9599609,59.7304688 C20.0667273,61.7083432 18.9342517,64.7708126 17.5625,68.9179688 C16.8287724,72.2994961 16.4619141,74.6122985 16.4619141,75.8564453 C16.4619141,76.6539753 16.5336907,77.3956671 16.6772461,78.081543 C16.8208015,78.7674188 18.0569545,79.8440682 20.3857422,81.3115234 C20.9599638,81.566733 21.7096308,81.917641 22.6347656,82.3642578 C22.9537776,82.555665 23.1132812,83.0341759 23.1132812,83.7998047 C22.4114548,84.1826191 21.7893907,84.4059242 21.2470703,84.4697266 C21.5022799,84.4378254 19.9231942,84.3261728 16.5097656,84.1347656 C12.3307083,83.9114572 9.93815407,83.8476558 9.33203125,83.9433594 C4.51494987,84.517581 1.48438122,84.6132832 0.240234375,84.2304688 C0.176431973,83.4329387 0.256183779,82.9384775 0.479492187,82.7470703 C0.54329459,82.6832679 1.43651482,81.981452 3.15917969,80.6416016 C4.62663494,79.5250595 5.79101132,78.0576263 6.65234375,76.2392578 C7.8964906,73.6233593 9.02896625,71.0872519 10.0498047,68.6308594 C10.1136071,68.4713534 12.1233526,62.5537693 16.0791016,50.8779297 C16.780928,48.2939324 18.0410065,44.4658457 19.859375,39.3935547 C20.5931026,38.1494078 21.5182236,36.2034638 22.6347656,33.5556641 C22.8899752,31.9287028 23.3046846,29.7594537 23.8789062,27.0478516 C24.4212267,25.9951119 25.1230426,24.5595794 25.984375,22.7412109 C26.462893,21.3694593 27.2923118,19.279962 28.4726562,16.4726562 C28.8873719,15.6113238 29.557287,13.23472 30.4824219,9.34277344 C28.759757,8.4176386 26.861664,7.60417018 24.7880859,6.90234375 C24.6923823,5.81770291 24.9954392,5.11588701 25.6972656,4.796875 C29.2063978,5.02018341 31.248044,5.13183594 31.8222656,5.13183594 L38.5214844,5.13183594 C39.9889396,5.13183594 41.4085218,5.32324027 42.7802734,5.70605469 C43.0035818,6.1207703 43.2906883,7.3170474 43.6416016,9.29492188 C43.8330088,9.55013148 44.0722642,9.97281606 44.359375,10.5629883 C44.6464858,11.1531605 44.965493,12.453115 45.3164062,14.4628906 C45.5078135,15.9941483 45.8587214,18.2431492 46.3691406,21.2099609 C47.1347695,24.6552907 48.5543516,29.4403991 50.6279297,35.5654297 C51.2340525,36.5543669 52.0794217,38.2770059 53.1640625,40.7333984 C53.5787781,42.3284585 54.2965444,44.6572113 55.3173828,47.7197266 C60.6129822,60.0654914 66.5305663,71.2945458 73.0703125,81.4072266 C74.2825581,82.9384842 76.0689986,85.2193859 78.4296875,88.25 C77.7278611,88.888024 77.281251,89.4143859 77.0898438,89.8291016 C77.2174486,90.4033232 77.5205054,90.6904297 77.9990234,90.6904297 C78.7965535,90.6904297 79.1953125,90.2916707 79.1953125,89.4941406 C80.854175,90.5787815 82.5130125,91.663406 84.171875,92.7480469 C86.4049591,94.0240949 88.2392506,94.6621094 89.6748047,94.6621094 L89.6748047,94.6621094 Z M44.5029297,51.2607422 L34.5019531,23.1240234 C33.0663991,25.8356255 31.0247528,29.9029677 28.3769531,35.3261719 C28.3450519,36.0918007 27.81869,37.8144397 26.7978516,40.4941406 C26.7978516,40.9726586 26.7500005,41.5787724 26.6542969,42.3125 C26.2395813,42.950524 25.7610704,43.7799428 25.21875,44.8007812 C25.1230464,45.7897185 24.8518903,47.2093006 24.4052734,49.0595703 C24.181965,49.2828787 23.9267592,49.5859356 23.6396484,49.96875 C23.6077472,50.0963548 23.6555983,50.3356102 23.7832031,50.6865234 C23.9108079,50.941733 23.8789072,51.0693359 23.6875,51.0693359 L44.5029297,51.2607422 Z M132.645508,41.546875 C132.836915,43.1738363 132.677411,46.0449013 132.166992,50.1601562 C131.84798,51.4362043 131.38542,53.3023966 130.779297,55.7587891 C129.471348,61.1819933 127.094744,65.5045412 123.649414,68.7265625 C122.309564,69.9707093 120.586925,71.2148375 118.481445,72.4589844 C115.993152,73.9583408 113.983406,74.7718093 112.452148,74.8994141 C112.260741,75.0270189 111.941734,75.1705721 111.495117,75.3300781 C106.773739,76.0319046 104.492838,76.3828125 104.652344,76.3828125 L73.5009766,76.3828125 C73.245767,75.2662705 73.3255188,74.5644546 73.7402344,74.2773438 C75.0800848,73.7988257 76.0052058,73.5595703 76.515625,73.5595703 C76.7070322,73.3043607 76.9781883,72.9534528 77.3291016,72.5068359 C78.828458,70.9436771 79.578125,69.2210381 79.578125,67.3388672 C79.578125,67.306966 79.4824228,66.908207 79.2910156,66.1425781 C79.4186204,65.8235661 79.5143226,65.3610056 79.578125,64.7548828 C79.4505202,64.4996732 79.2910166,64.1009142 79.0996094,63.5585938 C79.0677082,63.3671865 79.1315096,63.0083034 79.2910156,62.4819336 C79.4505216,61.9555638 79.5462238,61.5647799 79.578125,61.3095703 C79.6419274,60.0973247 79.6738281,58.1832813 79.6738281,55.5673828 L79.6738281,50.1601562 C79.6419269,46.4915181 79.6738276,41.1640974 79.7695312,34.1777344 C79.7695312,34.0820308 79.6897794,33.8667009 79.5302734,33.5317383 C79.3707674,33.1967757 79.2910156,32.9495451 79.2910156,32.7900391 C79.2910156,32.2796198 79.3707674,31.490077 79.5302734,30.4213867 C79.6897794,29.3526965 79.7695312,28.5472032 79.7695312,28.0048828 C79.7695312,27.877278 79.6738291,27.6380226 79.4824219,27.2871094 C79.2910147,26.9361962 79.1634118,26.6490897 79.0996094,26.4257812 C79.1315106,25.8196584 79.0836595,24.8945375 78.9560547,23.6503906 C78.4137343,21.5130101 77.6002658,20.1572294 76.515625,19.5830078 C75.6223914,19.136391 74.0911567,18.7535823 71.921875,18.4345703 C71.8899738,18.2431631 71.8740234,17.8284537 71.8740234,17.1904297 C73.2457751,16.5205045 74.6175062,16.3291001 75.9892578,16.6162109 C75.9892578,16.6162109 76.1009103,16.7039379 76.3242187,16.8793945 C76.5475272,17.0548511 76.7389315,17.1266278 76.8984375,17.0947266 C77.1217459,16.9671218 77.3929021,16.8076181 77.7119141,16.6162109 C78.7646537,16.5843097 79.8173775,16.552409 80.8701172,16.5205078 C82.0185604,16.552409 82.9117807,17.0309199 83.5498047,17.9560547 C83.6455083,17.9560547 83.7571608,17.9401043 83.8847656,17.9082031 C84.1718764,17.4296851 84.6503873,16.807621 85.3203125,16.0419922 C86.0859413,16.169597 87.1546155,16.3291006 88.5263672,16.5205078 C88.5901696,16.552409 88.7257477,16.4567068 88.9331055,16.2333984 C89.1404633,16.01009 89.3238924,15.8665368 89.4833984,15.8027344 C90.4723357,15.4837224 91.9557193,15.3242188 93.9335937,15.3242188 L106.087891,15.3242188 C111.351589,16.5045632 115.068023,17.5732374 117.237305,18.5302734 C121.35256,20.3167407 124.734036,23.0602029 127.381836,26.7607422 C127.924156,27.4625686 128.673823,28.5950443 129.630859,30.1582031 C131.034512,32.9336076 132.039385,36.7297936 132.645508,41.546875 L132.645508,41.546875 Z M130.492188,41.4990234 C126.600241,41.2438138 123.856779,41.1481117 122.261719,41.2119141 C122.006509,41.0843093 121.910807,40.541997 121.974609,39.5849609 C121.400388,38.1813081 120.491217,36.1715626 119.24707,33.5556641 C117.556307,30.1103343 115.690114,27.3748474 113.648437,25.3491211 C111.606761,23.3233948 108.289085,21.8958375 103.695312,21.0664063 C101.621734,20.715493 100.680663,20.5400391 100.87207,20.5400391 L95.9433594,20.5400391 C95.8157546,20.5400391 94.9384847,20.6915675 93.3115234,20.9946289 C91.6845622,21.2976903 90.5999376,21.4811195 90.0576172,21.5449219 C89.6110004,23.778006 89.4355464,26.2024609 89.53125,28.8183594 C89.5950524,30.0625062 89.6269531,32.5986137 89.6269531,36.4267578 L89.6269531,55.328125 C89.6269531,55.2962238 89.579102,55.8385361 89.4833984,56.9550781 C89.419596,57.9440154 89.419596,58.677732 89.4833984,59.15625 C89.6429044,61.0065197 89.7226562,61.8040377 89.7226562,61.5488281 C89.6269526,62.8248762 89.6110023,63.8935504 89.6748047,64.7548828 C89.6748047,64.94629 89.7705069,65.3769498 89.9619141,66.046875 C90.1214201,66.5891954 90.1852215,67.0039048 90.1533203,67.2910156 C90.1214191,67.3229168 89.5950572,67.5302715 88.5742187,67.9130859 C87.8404911,68.2320979 87.393881,68.6468073 87.234375,69.1572266 C87.7766954,69.6357446 88.4944617,69.9228511 89.3876953,70.0185547 C90.0257193,70.0504559 90.6637338,70.0664062 91.3017578,70.0664062 C97.7138992,70.8001339 101.430333,71.1669922 102.451172,71.1669922 C105.481786,71.1669922 108.161447,70.7044317 110.490234,69.7792969 C112.531911,68.9498656 114.206699,67.8652411 115.514648,66.5253906 C118.321954,63.6861837 120.188146,60.1611539 121.113281,55.9501953 C121.559898,53.9085184 121.878905,50.5110915 122.070312,45.7578125 C122.070312,45.3749981 121.783206,44.8326858 121.208984,44.1308594 C121.145182,43.6842426 121.240884,43.4290368 121.496094,43.3652344 C121.974612,43.2057284 122.963534,43.0302744 124.462891,42.8388672 C125.77084,42.7112624 127.637032,42.5039077 130.061523,42.2167969 C130.348634,41.9934885 130.492188,41.754233 130.492188,41.4990234 L130.492188,41.4990234 Z M195.378906,17.6689453 C193.975253,17.8922537 192.587572,18.1315091 191.21582,18.3867188 C189.429353,18.737632 187.993821,19.7584551 186.90918,21.4492188 C186.813476,21.8958356 186.590171,22.5976515 186.239258,23.5546875 C185.346024,25.7877716 184.133797,28.8183402 182.602539,32.6464844 C182.124021,33.1569036 181.406255,33.9225209 180.449219,34.9433594 C180.449219,35.1347666 180.417318,35.3899724 180.353516,35.7089844 C179.906899,36.3151072 179.587892,37.1764267 179.396484,38.2929688 C179.173176,39.5371156 178.981772,40.3346337 178.822266,40.6855469 C177.929032,42.4720141 177.035812,44.673164 176.142578,47.2890625 C175.504554,49.2031346 174.675135,51.0533765 173.654297,52.8398438 C173.271482,53.4140654 172.745121,54.3072856 172.075195,55.5195312 C171.947591,56.0937529 171.724285,56.9072213 171.405273,57.9599609 C169.969719,61.0862787 167.975924,65.7756849 165.423828,72.0283203 C165.328125,72.6663443 165.168621,73.5595646 164.945312,74.7080078 C164.753905,75.4417354 164.259444,76.1435513 163.461914,76.8134766 C163.142902,77.036785 162.425136,77.1803382 161.308594,77.2441406 C159.61783,77.3398442 158.597007,77.196291 158.246094,76.8134766 C158.277995,76.3987609 158.230144,75.8245479 158.102539,75.0908203 C157.33691,74.5165987 156.539392,73.559577 155.709961,72.2197266 C155.901368,70.4970617 155.805666,68.4235147 155.422852,65.9990234 C155.10384,65.8076162 154.705081,65.488609 154.226562,65.0419922 C153.843748,64.2763634 153.365237,62.5537243 152.791016,59.8740234 C152.599608,59.6826162 152.376303,59.4274104 152.121094,59.1083984 C151.833983,58.4384732 151.70638,57.720707 151.738281,56.9550781 C152.057293,56.7636709 153.429024,56.3808622 155.853516,55.8066406 C157.480477,55.4238262 158.628903,54.4987053 159.298828,53.03125 C158.533199,52.6484356 157.68783,52.4570312 156.762695,52.4570312 C156.09277,52.4570312 155.127773,52.5846341 153.867676,52.8398438 C152.607578,53.0950534 151.706383,53.2226562 151.164062,53.2226562 C150.334631,53.2226562 149.632815,53.0312519 149.058594,52.6484375 C149.186199,52.4251291 149.25,52.201824 149.25,51.9785156 C149.25,51.3723928 148.835291,50.4632222 148.005859,49.2509766 C146.985021,47.7835213 146.394858,46.8264996 146.235352,46.3798828 C146.331055,45.8694636 146.410807,45.1038463 146.474609,44.0830078 C146.155597,43.9235018 145.756838,43.6044946 145.27832,43.1259766 C145.182617,42.5198537 145.007163,41.690435 144.751953,40.6376953 C144.082028,39.6487581 143.109056,37.9420694 141.833008,35.5175781 C141.673502,34.7519493 141.322594,33.5556722 140.780273,31.9287109 C140.525064,31.4820941 140.126305,30.7802782 139.583984,29.8232422 C139.520182,29.6956374 138.945969,28.2282041 137.861328,25.4208984 C137.957032,25.1337876 137.972982,24.6233761 137.90918,23.8896484 C137.781575,23.5387352 137.239263,22.86882 136.282227,21.8798828 C135.484697,21.0823528 135.149739,20.3645865 135.277344,19.7265625 C133.490876,19.1204397 131.162124,18.163418 128.291016,16.8554688 C128.578126,16.4088519 130.013659,15.9462915 132.597656,15.4677734 C132.789063,15.5953782 133.044269,15.7867826 133.363281,16.0419922 C133.522787,16.9352258 134.112951,17.3818359 135.133789,17.3818359 C134.974283,17.3818359 135.819652,17.254233 137.669922,16.9990234 C138.850266,17.1585294 140.556955,17.1266287 142.790039,16.9033203 C143.013347,16.8076167 144.672185,16.5205102 147.766602,16.0419922 C148.021811,16.010091 149.106436,16.1695946 151.020508,16.5205078 C152.551765,16.7757174 154.465809,16.4886109 156.762695,15.6591797 C156.986004,15.8186857 157.24121,16.0738915 157.52832,16.4248047 C157.560222,16.6162119 157.576172,16.7916659 157.576172,16.9511719 C157.576172,17.5572947 156.451671,17.9401034 154.202637,18.0996094 C151.953602,18.2591154 150.829102,19.168286 150.829102,20.8271484 C150.829102,21.6246785 151.339513,23.5865729 152.360352,26.7128906 C152.296549,27.5423219 152.3444,28.738599 152.503906,30.3017578 C153.110029,30.8759794 153.827795,31.5777953 154.657227,32.4072266 C155.135745,33.0452506 155.454752,33.9065701 155.614258,34.9912109 C155.901369,36.5224686 156.060872,37.3678377 156.092773,37.5273438 C156.635094,38.8671942 157.36881,40.845039 158.293945,43.4609375 C158.357748,44.2265663 158.517251,45.359042 158.772461,46.8583984 C159.219078,47.2093117 159.74544,47.7197232 160.351562,48.3896484 C160.54297,49.4104869 160.846027,50.8141187 161.260742,52.6005859 C161.547853,53.2067088 161.882811,54.099929 162.265625,55.2802734 C162.265625,55.8863963 162.377278,56.8274676 162.600586,58.1035156 C162.823894,58.8372433 163.461909,59.0445979 164.514648,58.7255859 C165.152672,58.5341787 165.631183,58.0237672 165.950195,57.1943359 C166.173504,56.5563119 166.380858,55.9023471 166.572266,55.2324219 C167.018882,54.5624967 167.688798,53.5416735 168.582031,52.1699219 C168.677735,52.0104159 169.044593,51.0055431 169.682617,49.1552734 C169.618815,48.7405578 169.602864,48.1663448 169.634766,47.4326172 C169.985679,46.8264944 170.384438,45.885423 170.831055,44.609375 C170.926758,43.8756474 171.166014,42.9026753 171.548828,41.6904297 C172.091149,41.4033189 172.745113,40.8450562 173.510742,40.015625 C173.415039,39.5052058 173.383138,38.7555388 173.415039,37.7666016 C173.478841,37.5432932 174.27636,36.1396614 175.807617,33.5556641 C175.839518,33.4918617 176.062823,32.53484 176.477539,30.6845703 C176.892255,30.2698547 177.354815,29.6477906 177.865234,28.8183594 C177.705728,28.4036438 177.625977,27.8294308 177.625977,27.0957031 C178.136396,26.1705683 178.917963,24.5117307 179.970703,22.1191406 C180.130209,21.6725238 180.130209,21.3216159 179.970703,21.0664062 C179.524086,20.1731726 178.742519,19.0725977 177.625977,17.7646484 C176.732743,17.6051424 175.392913,17.3180359 173.606445,16.9033203 C173.638347,16.2014939 173.909503,15.8505859 174.419922,15.8505859 L190.785156,15.8505859 C190.88086,15.8505859 191.263669,15.9143874 191.933594,16.0419922 C192.507815,16.1376958 192.938475,16.1695965 193.225586,16.1376953 C193.576499,16.0100905 194.102861,15.8505869 194.804688,15.6591797 C195.41081,15.9462905 195.602215,16.6162057 195.378906,17.6689453 L195.378906,17.6689453 Z M241.74707,60.7353516 C241.651367,62.394214 241.444012,64.7389171 241.125,67.7695312 C240.742186,68.5989625 240.263675,69.7633389 239.689453,71.2626953 C239.561848,71.9007193 239.322593,72.7939396 238.97168,73.9423828 C238.844075,74.293296 238.429365,74.8834594 237.727539,75.7128906 C236.898108,76.7337291 236.228193,77.2441406 235.717773,77.2441406 L223.515625,77.2441406 C223.292317,77.2441406 221.856784,77.1962895 219.208984,77.1005859 C216.561185,77.0048823 215.125652,76.9570312 214.902344,76.9570312 L207.533203,76.9570312 C207.341796,76.9570312 206.360849,76.8693043 204.590332,76.6938477 C202.819815,76.518391 201.822918,76.4306641 201.599609,76.4306641 L194.374023,76.4306641 L193.751953,75.7607422 C194.102866,75.3141254 195.490548,74.3571037 197.915039,72.8896484 C199.573902,71.8369088 200.40332,70.5608799 200.40332,69.0615234 L200.40332,53.9404297 C200.40332,51.4840372 200.786129,48.1823124 201.551758,44.0351562 C201.137042,42.7591082 201.05729,41.1640721 201.3125,39.25 C200.738278,38.771482 200.451172,38.1015668 200.451172,37.2402344 C200.451172,37.176432 200.770179,35.8685023 201.408203,33.3164062 C201.440104,33.0930978 201.280601,32.6464877 200.929688,31.9765625 C200.483071,31.1790325 200.243815,30.7643231 200.211914,30.7324219 C199.988606,30.0624967 199.892903,29.0097728 199.924805,27.5742188 L199.924805,24.3203125 C199.829101,23.2356717 199.605796,22.3584018 199.254883,21.6884766 C198.776365,20.7633417 197.994797,20.0296251 196.910156,19.4873047 C195.95312,19.0725891 194.996099,18.6419293 194.039062,18.1953125 C194.485679,17.1425729 194.96419,16.5843102 195.474609,16.5205078 C196.463547,16.6481126 197.883129,16.6800133 199.733398,16.6162109 C201.775075,16.1376929 202.763998,15.8984375 202.700195,15.8984375 L211.169922,15.8984375 C211.297527,15.8984375 212.262524,16.01009 214.064941,16.2333984 C215.867359,16.4567068 217.231115,16.5843097 218.15625,16.6162109 C218.539064,16.6162109 221.729137,16.4088562 227.726562,15.9941406 C229.098314,15.898437 232.687145,15.9941392 238.493164,16.28125 C239.003583,16.6321632 239.258789,17.062823 239.258789,17.5732422 C239.258789,17.860353 239.155112,18.2750624 238.947754,18.8173828 C238.740396,19.3597032 238.636719,19.7584623 238.636719,20.0136719 C238.604818,21.0664115 238.26986,24.5435903 237.631836,30.4453125 C237.536132,30.6367197 237.073572,30.9397766 236.244141,31.3544922 C236.052733,31.0354802 235.46257,29.3287915 234.473633,26.234375 C233.835609,24.2245993 232.655282,23.1240244 230.932617,22.9326172 C230.230791,22.7731112 229.513025,22.6136076 228.779297,22.4541016 C227.79036,22.2307932 227.024742,22.1988924 226.482422,22.3583984 C225.078769,22.7731141 222.03225,22.8209651 217.342773,22.5019531 C214.758776,22.3105459 212.812832,22.358397 211.504883,22.6455078 C211.122068,22.7412114 210.866863,23.1080697 210.739258,23.7460938 C211.887701,27.4785343 211.935552,30.7802591 210.882812,33.6513672 C210.946615,33.45996 210.978516,34.257478 210.978516,36.0439453 C210.978516,36.4905621 210.898764,37.4156831 210.739258,38.8193359 C210.579752,39.9677792 210.547851,40.8929001 210.643555,41.5947266 C210.675456,41.9137386 210.978513,42.328448 211.552734,42.8388672 L229.592773,42.8388672 C230.166995,42.64746 230.725258,42.4560556 231.267578,42.2646484 C232.160812,41.9456364 232.782876,41.4511752 233.133789,40.78125 C233.452801,39.9518188 234.042964,38.8033928 234.904297,37.3359375 C235.925135,37.3359375 236.5791,37.6868454 236.866211,38.3886719 C236.738606,40.2070403 236.611003,42.5357931 236.483398,45.375 C236.451497,47.2571709 236.228192,50.0165834 235.813477,53.6533203 C235.685872,54.1956407 235.047857,54.3710947 233.899414,54.1796875 C233.484698,53.4140587 232.750982,52.4091859 231.698242,51.1650391 C229.752269,49.6975838 227.981779,48.9638672 226.386719,48.9638672 L219.783203,48.9638672 C219.368488,48.9638672 218.555019,48.8841154 217.342773,48.7246094 C216.130528,48.5651034 215.221357,48.4853516 214.615234,48.4853516 C212.924471,48.4853516 211.855797,48.9798128 211.40918,49.96875 C210.89876,51.085292 210.643555,51.9466116 210.643555,52.5527344 C210.643555,53.126956 210.755207,54.2115806 210.978516,55.8066406 C211.201824,57.4017007 211.297526,58.6298785 211.265625,59.4912109 C211.233724,59.9378278 211.082195,60.7752217 210.811035,62.003418 C210.539875,63.2316142 210.404297,64.1966111 210.404297,64.8984375 C210.404297,65.4407579 210.468098,65.9352191 210.595703,66.3818359 C210.819012,67.1474648 211.688306,68.0725857 213.203613,69.1572266 C214.71892,70.2418674 216.018875,70.8639315 217.103516,71.0234375 L217.582031,71.2148438 C217.901043,71.3105474 218.18815,71.3583984 218.443359,71.3583984 L226.386719,71.3583984 C228.173186,71.3583984 229.67252,71.0712919 230.884766,70.4970703 C232.575529,69.7314415 234.218417,68.4554126 235.813477,66.6689453 C237.568043,64.6910708 238.509114,62.8089282 238.636719,61.0224609 C239.46615,60.4801405 240.502923,60.3844383 241.74707,60.7353516 L241.74707,60.7353516 Z M291.560547,54.6582031 L291.129883,55.1845703 L290.842773,54.8974609 L291.082031,53.8925781 C291.624352,54.4029973 291.783855,54.6582031 291.560547,54.6582031 L291.560547,54.6582031 Z M309.313477,18.0996094 C308.707354,18.195313 307.830084,18.3548166 306.681641,18.578125 C305.469395,18.9290382 304.512373,19.6946556 303.810547,20.875 C302.82161,22.6295661 302.215496,24.3522051 301.992188,26.0429688 C301.577472,28.9778793 301.370117,31.3704335 301.370117,33.2207031 C301.370117,33.3483079 301.433919,34.7280142 301.561523,37.3598633 C301.689128,39.9917124 301.75293,41.387369 301.75293,41.546875 L301.75293,49.1552734 C301.75293,49.250977 301.808756,49.5699843 301.92041,50.1123047 C302.032064,50.6546251 302.07194,51.0693345 302.040039,51.3564453 C301.848632,55.2164907 301.75293,57.3857398 301.75293,57.8642578 C301.75293,58.1194674 301.816731,58.6378542 301.944336,59.4194336 C302.071941,60.201013 302.135742,60.6555983 302.135742,60.7832031 L302.135742,75.4736328 C302.135742,75.66504 302.159668,75.7687174 302.20752,75.784668 C302.255371,75.8006186 302.279297,75.8245441 302.279297,75.8564453 C300.046213,76.2392597 299.04134,76.4306641 299.264648,76.4306641 C297.924798,76.4306641 297.095379,76.2871108 296.776367,76 C294.575184,73.9583231 291.321311,70.3854422 287.014648,65.28125 C286.24902,64.2604116 285.100594,62.7929783 283.569336,60.8789062 C282.229485,59.570957 280.411144,57.6569136 278.114258,55.1367188 C277.540036,54.1796827 276.583015,52.7601006 275.243164,50.8779297 C272.372056,47.4006988 268.304714,42.2806328 263.041016,35.5175781 C262.339189,34.9752577 261.382168,34.1139382 260.169922,32.9335938 C260.138021,32.7102853 260.042319,32.3912781 259.882812,31.9765625 C259.499998,31.3704397 258.861984,30.4612691 257.96875,29.2490234 C257.298825,29.5680354 256.963867,30.0624967 256.963867,30.7324219 C256.963867,30.7005207 257.187172,32.3274575 257.633789,35.6132812 C257.66569,35.8046885 257.63379,36.0997701 257.538086,36.4985352 C257.442382,36.8973002 257.394531,37.1604811 257.394531,37.2880859 C257.394531,38.564134 257.450358,40.5340036 257.562012,43.1977539 C257.673666,45.8615042 257.729492,47.1614587 257.729492,47.0976562 L257.729492,53.796875 C257.729492,53.9882822 257.753418,55.6152191 257.80127,58.6777344 C257.849121,61.7402497 257.873047,63.3512362 257.873047,63.5107422 C257.873047,70.1780932 260.249651,73.6871727 265.00293,74.0380859 C265.098633,74.0380859 265.218261,74.173664 265.361816,74.4448242 C265.505372,74.7159844 265.609049,74.8834632 265.672852,74.9472656 C265.704753,75.5214872 265.625001,75.9999981 265.433594,76.3828125 L248.733398,76.3828125 C248.605794,76.3828125 248.023605,76.4705395 246.986816,76.6459961 C245.950027,76.8214527 245.351889,76.9091797 245.192383,76.9091797 L244.426758,76.9091797 C244.139647,76.6220689 243.996094,76.4466149 243.996094,76.3828125 C243.996094,75.2662705 244.347002,74.5166035 245.048828,74.1337891 C245.878259,73.8785795 247.090487,73.4000686 248.685547,72.6982422 C250.248706,71.8369098 251.189777,70.4651787 251.508789,68.5830078 C252.33822,63.9573336 252.513674,61.1341197 252.035156,60.1132812 C251.811848,59.6666644 251.779947,59.2838558 251.939453,58.9648438 C251.939453,58.9648438 252.067056,58.8053401 252.322266,58.4863281 C252.322266,58.4863281 252.226563,58.3427749 252.035156,58.0556641 C252.003255,57.7047508 252.019205,57.0906619 252.083008,56.2133789 C252.14681,55.3360959 252.178711,54.7060566 252.178711,54.3232422 C252.178711,53.8766254 252.090984,53.111008 251.915527,52.0263672 C251.740071,50.9417263 251.652344,50.176109 251.652344,49.7294922 C251.652344,50.2080102 251.716145,49.2190878 251.84375,46.7626953 C251.811849,46.6669917 251.668296,46.3479845 251.413086,45.8056641 L251.652344,45.5664062 C251.779949,45.374999 251.8597,45.0240911 251.891602,44.5136719 C251.955404,44.4179683 251.955404,44.3063157 251.891602,44.1787109 C251.444985,40.5738752 251.22168,38.1494203 251.22168,36.9052734 L251.22168,30.3017578 C251.22168,30.3017578 251.165853,29.3606865 251.054199,27.4785156 C250.942545,25.5963448 250.886719,24.240564 250.886719,23.4111328 C250.886719,23.3154292 250.942545,23.1080745 251.054199,22.7890625 C251.165853,22.4700505 251.205729,22.1988943 251.173828,21.9755859 C248.749337,19.4234898 245.702818,18.2750638 242.03418,18.5302734 L241.794922,18.2910156 L241.794922,16.7119141 C242.145835,16.2971984 243.007155,16.0898438 244.378906,16.0898438 C244.538412,16.0898438 245.822416,16.1536452 248.230957,16.28125 C250.639498,16.4088548 251.923502,16.4726562 252.083008,16.4726562 C252.210613,16.4726562 253.398915,16.4088548 255.647949,16.28125 C257.896984,16.1536452 259.101236,16.0898438 259.260742,16.0898438 C260.026371,16.0898438 260.472981,16.1217445 260.600586,16.1855469 C261.047203,16.3450529 261.972324,17.3818264 263.375977,19.2958984 C266.023776,23.028339 270.011367,28.5790647 275.338867,35.9482422 C276.423508,37.3199938 278.050445,39.3616401 280.219727,42.0732422 C279.836912,44.8805479 280.235671,46.2841797 281.416016,46.2841797 C281.54362,46.2841797 281.798826,46.1884775 282.181641,45.9970703 C282.564455,45.8056631 282.835611,45.7099609 282.995117,45.7099609 C283.409833,45.7099609 283.968095,46.3001243 284.669922,47.4804688 C285.020835,48.0865916 285.355793,48.6767549 285.674805,49.2509766 C288.003592,51.1331474 289.455075,52.56868 290.029297,53.5576172 C290.156902,54.0999376 290.380207,54.8974557 290.699219,55.9501953 C290.954428,56.3011085 291.161783,56.4765625 291.321289,56.4765625 C291.480795,56.4765625 291.640299,56.4127611 291.799805,56.2851562 C291.959311,56.1575514 292.055013,56.09375 292.086914,56.09375 C292.948246,57.0188848 294.112623,58.3746655 295.580078,60.1611328 C296.122399,59.9059232 296.393555,59.6666678 296.393555,59.4433594 C296.393555,59.2838534 296.329753,59.0126972 296.202148,58.6298828 C296.074544,58.2470684 296.010742,57.9759123 296.010742,57.8164062 L296.010742,52.6962891 C296.010742,52.5367831 295.986817,52.3055028 295.938965,52.0024414 C295.891113,51.69938 295.867188,51.3085961 295.867188,50.8300781 C295.994792,50.2239553 296.090494,49.3626358 296.154297,48.2460938 C295.994791,47.3209589 295.787436,45.9651782 295.532227,44.1787109 C295.468424,43.9235013 295.500325,43.4449905 295.62793,42.7431641 C295.755534,42.0413376 295.819336,41.6425786 295.819336,41.546875 C295.819336,41.4192702 295.771485,41.1560892 295.675781,40.7573242 C295.580078,40.3585592 295.532227,40.0794279 295.532227,39.9199219 C295.468424,39.3457003 295.468424,38.5641325 295.532227,37.5751953 C295.596029,36.3310485 295.62793,35.5016297 295.62793,35.0869141 C295.62793,34.9274081 295.556153,34.6562519 295.412598,34.2734375 C295.269042,33.8906231 295.181315,33.6035166 295.149414,33.4121094 C295.149414,33.4121094 295.213216,32.9814496 295.34082,32.1201172 C295.372722,31.8649076 295.316895,31.3704464 295.17334,30.6367188 C295.029784,29.9029911 294.958008,29.3447285 294.958008,28.9619141 C294.958008,28.8343093 295.021809,28.5472028 295.149414,28.1005859 C295.277019,27.6539691 295.32487,27.3349619 295.292969,27.1435547 C295.101562,25.8356054 294.766604,23.9215621 294.288086,21.4013672 C293.841469,19.7425047 292.023128,18.6419298 288.833008,18.0996094 C288.89681,17.557289 288.833009,16.9830759 288.641602,16.3769531 C288.992515,16.0898423 290.12499,15.9462891 292.039062,15.9462891 L300.748047,16.28125 C300.55664,16.28125 301.992172,16.1855478 305.054688,15.9941406 C306.873056,15.8665358 308.292638,15.9781883 309.313477,16.3291016 L309.313477,18.0996094 Z M357.069336,16.8076172 C356.877929,18.0198628 356.654624,19.4713457 356.399414,21.1621094 L356.399414,32.2636719 C356.239908,32.2636719 355.952802,32.311523 355.538086,32.4072266 C355.12337,32.5029302 354.836264,32.5507812 354.676758,32.5507812 C354.612955,32.2955716 354.35775,30.3974786 353.911133,26.8564453 C353.655923,24.8147684 352.714852,23.251633 351.087891,22.1669922 C350.386064,21.656573 348.727227,21.6884737 346.111328,22.2626953 C344.803379,22.3903001 342.921236,22.693357 340.464844,23.171875 C339.603511,23.4589858 339.061199,24.0012981 338.837891,24.7988281 C338.29557,26.840505 338.239744,29.7913218 338.67041,33.6513672 C339.101076,37.5114125 338.981449,42.8228829 338.311523,49.5859375 C338.311523,49.5540363 338.518878,51.7551862 338.933594,56.1894531 C338.805989,57.7207108 338.774088,60.0175628 338.837891,63.0800781 C339.188804,64.7070394 339.699215,67.1793454 340.369141,70.4970703 C340.688153,72.0921304 341.756827,73.1129535 343.575195,73.5595703 C345.042651,73.9104835 346.510084,74.2454411 347.977539,74.5644531 C347.977539,75.0429711 347.610681,75.744787 346.876953,76.6699219 L319.745117,76.6699219 C319.489908,76.6699219 319.362305,76.4785175 319.362305,76.0957031 C319.362305,75.9999995 319.378255,75.7447937 319.410156,75.3300781 C320.399093,75.1067697 321.850576,74.6442092 323.764648,73.9423828 C325.423511,73.0491492 326.651689,71.980475 327.449219,70.7363281 C327.672527,70.3854149 327.895832,68.9498824 328.119141,66.4296875 C328.246745,62.0273217 328.406249,57.4176673 328.597656,52.6005859 L328.597656,35.3740234 L329.889648,35.3740234 C329.953451,35.3421222 330.065103,35.198569 330.224609,34.9433594 C329.777993,33.8906197 329.23568,32.3753354 328.597656,30.3974609 C328.533854,30.0146465 328.278648,27.5742412 327.832031,23.0761719 L318.979492,23.0761719 C318.054357,23.0761719 316.905931,23.5865834 315.53418,24.6074219 C314.162428,25.6282603 313.412761,26.4576791 313.285156,27.0957031 C312.615231,29.93491 311.961266,31.8968045 311.323242,32.9814453 C311.00423,33.5237657 310.286464,33.7949219 309.169922,33.7949219 C309.169922,33.6673171 309.10612,33.268558 308.978516,32.5986328 C308.882812,32.0244112 308.866862,31.6097018 308.930664,31.3544922 C309.313478,30.0465429 309.680337,28.0208471 310.03125,25.2773437 C310.445966,21.9596188 310.764973,19.7265682 310.988281,18.578125 C310.988281,18.578125 311.498693,17.9082098 312.519531,16.5683594 C311.562495,16.4726558 314.481411,16.4248047 321.276367,16.4248047 C323.254242,16.4248047 326.260885,16.6002587 330.296387,16.9511719 C334.331889,17.3020851 336.269858,17.4775391 336.110352,17.4775391 L344.005859,17.4775391 C343.973958,17.4775391 344.93098,17.3180354 346.876953,16.9990234 C348.982432,16.6800114 351.008128,16.4726567 352.954102,16.3769531 C353.687829,16.2812495 354.421546,16.1855474 355.155273,16.0898437 C356.112309,15.9941401 356.750324,16.2333956 357.069336,16.8076172 L357.069336,16.8076172 Z M421.477539,16.2333984 C421.477539,17.4137429 421.270184,18.035807 420.855469,18.0996094 C420.249346,18.1634118 419.356126,18.3548161 418.175781,18.6738281 C417.665362,18.6419269 416.963546,18.8173809 416.070313,19.2001953 C414.985672,20.1891325 414.347657,21.6087147 414.15625,23.4589844 C414.060546,23.6184904 413.948894,23.8736962 413.821289,24.2246094 C413.661783,26.0110766 413.613932,27.1276019 413.677734,27.5742188 C414.124351,30.4772281 414.347656,31.9446613 414.347656,31.9765625 L414.347656,35.6611328 C414.347656,35.7887376 414.29183,36.0359682 414.180176,36.402832 C414.068522,36.7696958 413.996745,37.0169264 413.964844,37.1445312 C413.932943,37.3678397 413.948893,37.7984994 414.012695,38.4365234 C414.299806,40.9886195 414.443359,44.322245 414.443359,48.4375 C414.443359,48.4694012 414.387533,48.5730785 414.275879,48.7485352 C414.164225,48.9239918 414.108398,49.0595698 414.108398,49.1552734 C414.108398,52.24969 414.140299,53.4778678 414.204102,52.8398438 C414.076497,54.5306074 413.77344,57.0348141 413.294922,60.3525391 C413.103515,61.3414763 412.553227,62.8487854 411.644043,64.8745117 C410.734859,66.900238 409.961266,68.3437457 409.323242,69.2050781 C408.557613,70.1940154 407.153982,71.4221932 405.112305,72.8896484 C403.485343,74.0699929 401.842456,75.2343693 400.183594,76.3828125 C399.705076,76.0318993 398.333345,76.1595022 396.068359,76.765625 C395.621743,77.0208346 394.919927,77.3717426 393.962891,77.8183594 C393.803385,77.8821618 393.548179,77.8343107 393.197266,77.6748047 C392.846352,77.5152987 392.654948,77.4355469 392.623047,77.4355469 L389.082031,77.4355469 C389.528648,77.4355469 388.71518,77.2122418 386.641602,76.765625 C385.907874,76.7337238 384.85515,76.6061209 383.483398,76.3828125 C382.653967,75.9361957 381.377938,75.377933 379.655273,74.7080078 C379.144854,74.6761066 378.379237,74.5963548 377.358398,74.46875 C377.007485,74.3730464 376.385421,74.0699895 375.492188,73.5595703 C369.749971,70.2418454 366.751303,64.5635168 366.496094,56.5244141 L366.06543,41.4033203 C365.842121,37.224263 365.395511,31.003622 364.725586,22.7412109 C364.534179,20.9228425 363.848313,19.6468136 362.667969,18.9130859 C362.317056,18.6578763 360.801771,18.1953158 358.12207,17.5253906 C358.026367,17.3339834 357.978516,17.1585294 357.978516,16.9990234 C357.978516,16.3929006 358.520828,16.1695956 359.605469,16.3291016 C362.093762,16.6481136 364.948877,16.8076172 368.170898,16.8076172 L372.8125,16.8076172 C372.908204,16.8076172 373.354814,16.7438157 374.152344,16.6162109 C374.949874,16.4886061 375.555988,16.4248047 375.970703,16.4248047 C377.501961,16.5205083 379.798813,16.4567068 382.861328,16.2333984 C383.116538,16.5524104 383.244141,16.839517 383.244141,17.0947266 C383.244141,17.6051458 382.255218,18.0198552 380.277344,18.3388672 C380.117838,18.466472 379.830731,18.6738267 379.416016,18.9609375 C379.192707,19.0566411 378.8737,19.2320951 378.458984,19.4873047 C377.884763,19.9339215 377.565756,20.3326805 377.501953,20.6835938 C376.927732,23.5866031 376.241866,26.7288242 375.444336,30.1103516 C375.476237,30.014648 375.635741,30.5410099 375.922852,31.6894531 C375.954753,31.6894531 375.82715,32.5188719 375.540039,34.1777344 C375.667644,34.7200548 375.587892,35.9960837 375.300781,38.0058594 C375.364584,37.623045 375.540038,38.8033717 375.827148,41.546875 C375.85905,41.9615906 375.779298,43.3652224 375.587891,45.7578125 C375.619792,45.9173185 375.683593,46.1246732 375.779297,46.3798828 C375.779297,46.5393888 375.667644,47.7197156 375.444336,49.9208984 C375.380534,50.6227249 375.524087,52.1380092 375.875,54.4667969 C376.066407,54.7220065 376.273762,55.1048152 376.49707,55.6152344 C376.528972,55.710938 376.624674,56.7955625 376.78418,58.8691406 C376.752278,59.251955 376.736328,59.826168 376.736328,60.5917969 C376.895834,60.9427101 377.103189,61.4371713 377.358398,62.0751953 C377.454102,62.3304049 377.438152,62.729164 377.310547,63.2714844 C377.693361,63.7819036 378.235674,64.5475209 378.9375,65.5683594 C379.320314,66.2701858 380.085932,67.2272075 381.234375,68.4394531 C382.095707,69.1093783 382.957027,69.7792935 383.818359,70.4492188 C385.030605,71.3105512 386.11523,71.8209627 387.072266,71.9804688 C387.933598,72.0761724 388.938471,72.1240234 390.086914,72.1240234 L396.451172,72.1240234 C398.205738,72.1240234 400.05598,71.1032003 402.001953,69.0615234 C403.852223,67.1474514 405.0485,65.1536562 405.59082,63.0800781 C405.84603,61.3255121 406.149087,59.1881636 406.5,56.6679688 C406.75521,55.0091063 406.75521,52.7601053 406.5,49.9208984 L406.595703,27.2871094 C406.372395,25.4049385 405.877934,23.219739 405.112305,20.7314453 C404.793293,19.7106069 403.581065,18.9130888 401.475586,18.3388672 C401.092772,18.2431636 400.422856,18.0996103 399.46582,17.9082031 C399.274413,17.5891911 399.178711,17.1744817 399.178711,16.6640625 C399.019205,16.6640625 399.513666,16.6002611 400.662109,16.4726562 C403.054699,16.1855454 405.335601,16.2812476 407.504883,16.7597656 C407.887697,16.664062 408.414059,16.6002606 409.083984,16.5683594 C410.29623,16.7916678 412.401678,16.7438167 415.400391,16.4248047 C415.527995,16.3929035 415.767251,16.416829 416.118164,16.496582 C416.469077,16.576335 416.708333,16.6162109 416.835938,16.6162109 C417.186851,16.6162109 418.734036,16.488608 421.477539,16.2333984 L421.477539,16.2333984 Z M481.244141,74.9951172 C480.988931,75.3460304 480.574222,75.7766902 480,76.2871094 C478.564446,77.0846394 477.527672,77.4833984 476.889648,77.4833984 L471.147461,77.4833984 C469.201488,77.4833984 467.750005,77.4036466 466.792969,77.2441406 C466.091142,76.988931 465.022468,76.6220727 463.586914,76.1435547 C462.374668,75.7607403 460.25327,73.8466969 457.222656,70.4013672 C456.967447,70.1142564 455.723318,68.0566598 453.490234,64.2285156 C451.480459,60.7512847 449.901373,57.8323686 448.75293,55.4716797 C448.465819,54.5784461 447.955407,53.43002 447.22168,52.0263672 C446.902668,51.675454 446.10515,51.5478511 444.829102,51.6435547 C444.031572,51.7392583 443.218103,51.8349605 442.388672,51.9306641 C441.335932,51.8668617 439.772797,51.8509113 437.699219,51.8828125 C437.47591,51.8828125 437.204754,52.0742168 436.885742,52.4570312 C437.013347,53.7011781 437.172851,57.6090166 437.364258,64.1806641 C437.396159,65.4567121 437.651365,67.1315 438.129883,69.2050781 C438.129883,69.7792997 438.289386,70.6246689 438.608398,71.7412109 C439.278324,72.8896542 440.362948,73.719073 441.862305,74.2294922 C443.07455,74.5804054 444.286778,74.9313133 445.499023,75.2822266 C445.530925,75.6331398 445.499024,76.0478492 445.40332,76.5263672 C444.478185,76.9091816 443.537114,77.1005859 442.580078,77.1005859 L437.555664,77.1005859 C437.491862,77.1005859 437.061202,77.0208341 436.263672,76.8613281 C435.466142,76.7018221 434.891929,76.6220703 434.541016,76.6220703 C433.552078,76.6220703 432.012869,76.7018221 429.92334,76.8613281 C427.833811,77.0208341 426.789062,77.1005859 426.789062,77.1005859 L421.956055,77.1005859 C421.477537,77.1005859 420.903324,76.9570327 420.233398,76.6699219 C420.233398,76.5742183 420.193523,76.3828139 420.11377,76.0957031 C420.034017,75.8085923 419.994141,75.6012376 419.994141,75.4736328 C421.653003,75.027016 422.673826,74.7080088 423.056641,74.5166016 C424.236985,73.9742811 425.194007,73.0491602 425.927734,71.7412109 C426.246746,71.1669893 426.470051,69.6995561 426.597656,67.3388672 C426.597656,66.9560528 426.709309,65.9671304 426.932617,64.3720703 C427.124024,62.9046151 427.219727,61.7880898 427.219727,61.0224609 C427.219727,56.6838976 427.259602,54.3391945 427.339355,53.9882812 C427.419108,53.637368 427.71419,53.063155 428.224609,52.265625 C428.001301,52.0423166 427.714194,51.6116568 427.363281,50.9736328 C427.203775,50.3994112 427.124023,49.5859428 427.124023,48.5332031 L427.124023,43.7001953 C427.124023,43.6682941 427.076172,43.1738329 426.980469,42.2167969 C427.01237,42.5996113 427.155923,40.4941636 427.411133,35.9003906 C427.379232,35.8365882 427.29948,35.7249357 427.171875,35.5654297 C426.820962,34.3212828 426.836912,32.6783956 427.219727,30.6367188 C427.347331,30.0624971 427.139977,28.1484538 426.597656,24.8945312 C426.565755,23.8736928 426.278649,22.5338625 425.736328,20.875 C425.034502,20.0136676 424.125331,19.4713553 423.008789,19.2480469 C422.051753,19.0247385 421.110682,18.8173838 420.185547,18.6259766 C420.185547,16.8076081 420.137696,16.4247994 420.041992,17.4775391 C420.105795,16.9671198 420.424802,16.6959637 420.999023,16.6640625 C422.306973,16.6002601 424.39647,16.4567068 427.267578,16.2333984 C429.915378,15.9781888 431.271159,15.8505859 431.334961,15.8505859 L437.507812,15.8505859 C438.656256,15.8505859 439.836582,15.7548838 441.048828,15.5634766 C442.261074,15.3720694 443.297847,15.2763672 444.15918,15.2763672 C445.243821,15.2763672 446.599601,15.3720694 448.226562,15.5634766 C449.247401,15.786785 450.746735,16.1057922 452.724609,16.5205078 C452.916017,16.6481126 453.235024,16.7916659 453.681641,16.9511719 C456.744156,17.4296899 459.455717,18.8811728 461.816406,21.3056641 C463.124355,22.6774157 464.288732,25.1018706 465.30957,28.5791016 C465.341472,29.0895208 465.389323,29.8391878 465.453125,30.828125 C465.516927,31.625655 465.453126,32.8219321 465.261719,34.4169922 C464.847003,37.7985195 464.049485,40.3505773 462.869141,42.0732422 C461.7845,43.6683022 459.695002,45.9013528 456.600586,48.7724609 C456.568685,49.4423862 456.696288,50.0325495 456.983398,50.5429688 C458.993174,54.4030141 461.00292,58.2630015 463.012695,62.1230469 C465.405285,66.3021042 468.308251,69.8590348 471.72168,72.7939453 C472.00879,73.0491549 473.189117,73.4638643 475.262695,74.0380859 C476.506842,74.3570979 477.559566,74.4368498 478.420898,74.2773438 C479.696946,74.0221341 480.606117,73.926432 481.148438,73.9902344 C481.21224,74.2135428 481.244141,74.5485004 481.244141,74.9951172 L481.244141,74.9951172 Z M455.021484,34.0341797 C455.021484,32.98144 454.941733,32.2796242 454.782227,31.9287109 C453.187167,27.6858512 451.831386,24.9742898 450.714844,23.7939453 C449.183586,22.1350829 447.476897,21.082359 445.594727,20.6357422 C444.35058,20.3486314 442.340834,20.2688796 439.56543,20.3964844 C439.278319,20.4283856 438.831709,20.6038396 438.225586,20.9228516 C437.715167,26.4098582 437.396159,30.8440586 437.268555,34.2255859 C437.428061,34.4807955 437.587564,34.8476539 437.74707,35.3261719 C437.74707,35.7727887 437.603517,37.5911299 437.316406,40.78125 C437.124999,42.8867293 437.17285,44.992177 437.459961,47.0976562 C437.555665,47.1933599 437.683267,47.3369131 437.842773,47.5283203 L442.580078,47.5283203 C443.122399,47.6559251 443.696612,47.7197266 444.302734,47.7197266 C446.184905,47.7197266 447.995271,47.121588 449.733887,45.925293 C451.472502,44.7289979 452.533201,43.7480507 452.916016,42.9824219 C454.319668,40.3665234 455.021484,37.3838058 455.021484,34.0341797 L455.021484,34.0341797 Z M561.395508,44.4179688 C561.395508,46.7786576 561.315756,48.5810485 561.15625,49.8251953 C560.773436,50.7822313 560.358726,52.265615 559.912109,54.2753906 C559.848307,56.2532651 559.401697,58.3587128 558.572266,60.5917969 C557.934242,61.4531293 556.97722,62.7929597 555.701172,64.6113281 C555.318357,65.8873762 554.393237,67.689767 552.925781,70.0185547 C551.745437,71.2308003 549.911145,73.0810422 547.422852,75.5693359 C547.071938,75.6969407 546.593428,75.9042954 545.987305,76.1914062 C545.476885,76.7018255 544.535814,77.4355421 543.164062,78.3925781 C536.369107,81.9974139 529.89326,84.0550105 523.736328,84.5654297 L515.553711,84.5654297 C515.617513,84.5654297 515.442059,84.4218764 515.027344,84.1347656 C510.561176,84.039062 507.195649,83.4169979 504.930664,82.2685547 C504.388344,82.1728511 503.622726,81.9654964 502.633789,81.6464844 C500.943025,81.0084604 498.438819,79.844084 495.121094,78.1533203 C491.133444,75.6012242 487.401059,72.0283433 483.923828,67.4345703 C481.977855,64.850573 480.255216,61.5328979 478.755859,57.4814453 C477.352207,53.7171036 476.570639,50.5429817 476.411133,47.9589844 C476.124022,43.5566186 476.283526,39.2500211 476.889648,35.0390625 C477.144858,34.4967421 477.479816,33.7151744 477.894531,32.6943359 C478.149741,31.4820903 478.596351,29.6956498 479.234375,27.3349609 C480.127609,25.8675057 481.323886,23.7461076 482.823242,20.9707031 C483.046551,20.4921851 483.158203,19.9498728 483.158203,19.34375 C483.34961,19.1523428 483.76432,19.2161442 484.402344,19.5351562 C484.593751,18.9609346 484.577801,18.1315158 484.354492,17.046875 C484.928714,16.8554678 485.710282,16.5045598 486.699219,15.9941406 C486.98633,15.1328082 487.767897,14.0800843 489.043945,12.8359375 C491.500338,11.5279883 495.248673,9.58204417 500.289062,6.99804688 C501.597012,6.36002285 503.239899,5.80176021 505.217773,5.32324219 C510.258163,4.17479895 513.703441,3.60058594 515.553711,3.60058594 L520.43457,3.60058594 C524.198912,3.60058594 527.420885,3.96744425 530.100586,4.70117188 C531.53614,5.08398629 534.726212,6.2324123 539.670898,8.14648438 C540.723638,8.8164096 542.366525,9.86913345 544.599609,11.3046875 C547.821631,13.3463644 550.756497,16.1855287 553.404297,19.8222656 C555.764986,23.0442869 557.312171,26.0110542 558.045898,28.7226562 C558.36491,29.1692731 558.77962,29.871089 559.290039,30.828125 C560.183273,33.3164187 560.709635,36.9850018 560.869141,41.8339844 C560.869141,41.9934904 560.956868,42.3762991 561.132324,42.9824219 C561.307781,43.5885447 561.395508,44.0670555 561.395508,44.4179688 L561.395508,44.4179688 Z M547.614258,46.0449219 C547.199542,40.8131249 546.178719,36.0439668 544.551758,31.7373047 C542.414377,26.1545945 539.910171,21.7841955 537.039062,18.6259766 C532.98761,14.1598084 528.55341,11.5279988 523.736328,10.7304687 C519.174456,9.96483992 516.048186,9.69368378 514.357422,9.91699219 C511.039697,10.363609 508.216483,11.0973256 505.887695,12.1181641 C505.600585,12.2457689 503.734392,13.3463438 500.289063,15.4199219 C500.033853,15.8346375 499.635094,16.3290987 499.092773,16.9033203 C498.773761,16.9990239 498.406903,17.1266268 497.992188,17.2861328 C497.162756,18.3707737 496.141933,19.8382069 494.929688,21.6884766 C494.73828,22.1988958 494.451174,22.9007117 494.068359,23.7939453 C493.430335,24.7828825 492.776371,25.9632093 492.106445,27.3349609 C491.69173,28.8662186 491.117517,31.1630706 490.383789,34.2255859 C490.41569,35.4059304 490.38379,37.1604701 490.288086,39.4892578 C490.288086,39.6168626 490.208334,39.8959939 490.048828,40.3266602 C489.889322,40.7573264 489.80957,41.0364577 489.80957,41.1640625 C490.415693,43.9075658 491.245112,47.6559007 492.297852,52.4091797 C492.234049,52.7281917 492.170248,53.1110004 492.106445,53.5576172 C492.393556,54.1318388 492.808266,54.9293569 493.350586,55.9501953 C493.382487,56.4925157 493.51009,57.1943316 493.733398,58.0556641 C495.487965,61.532895 496.381185,63.3193355 496.413086,63.4150391 C497.689134,65.5524195 499.411773,67.5940658 501.581055,69.5400391 C501.612956,69.5719403 501.868162,70.4332598 502.34668,72.1240234 C502.538087,72.1240234 503.255853,72.235676 504.5,72.4589844 C506.509776,74.3411552 508.056961,75.6171842 509.141602,76.2871094 C510.609057,77.1484418 513.320618,77.7067045 517.276367,77.9619141 C520.434586,78.1852225 523.289701,78.1692721 525.841797,77.9140625 C526.479821,77.7226553 527.34114,77.4674495 528.425781,77.1484375 C529.797533,76.8294255 531.759427,76.14356 534.311523,75.0908203 C534.917646,74.5484999 535.699214,73.8945351 536.65625,73.1289062 C538.283211,72.139969 539.830396,70.7044365 541.297852,68.8222656 C542.765307,66.9400948 543.674477,65.2174557 544.025391,63.6542969 C544.440106,63.1757789 544.934567,62.473963 545.508789,61.5488281 C545.572591,60.7512981 545.700194,59.8102268 545.891602,58.7255859 C546.146811,58.4703763 546.402017,58.0716173 546.657227,57.5292969 C546.721029,56.604162 546.928384,54.5465654 547.279297,51.3564453 C547.566408,48.772448 547.67806,47.0019579 547.614258,46.0449219 L547.614258,46.0449219 Z M615.467773,75.6171875 C615.403971,77.3398524 614.271495,81.1998398 612.070313,87.1972656 C611.910806,87.6438824 611.240891,88.6647056 610.060547,90.2597656 C607.029933,94.3431194 604.366222,96.8154254 602.069336,97.6767578 C601.527016,98.027671 600.681646,98.4902315 599.533203,99.0644531 C596.055972,100.404304 591.621772,101.074219 586.230469,101.074219 C584.699211,101.074219 583.295579,100.994467 582.019531,100.834961 C581.923828,100.133135 582.051431,99.271815 582.402344,98.2509766 C580.998691,96.8792249 579.770513,96.1933594 578.717773,96.1933594 C577.888342,96.1933594 577.138675,96.6080688 576.46875,97.4375 C577.106774,97.916018 577.728838,98.1552734 578.334961,98.1552734 C578.398763,98.8251987 578.159508,99.2877591 577.617188,99.5429688 C577.138669,99.7662772 576.564456,99.7662772 575.894531,99.5429688 C575.60742,99.4472651 573.135114,98.4902435 568.477539,96.671875 C567.775713,96.4804678 567.089847,96.2731131 566.419922,96.0498047 C565.462886,95.6988915 564.729169,95.1884799 564.21875,94.5185547 C564.21875,94.5185547 564.027346,93.2425258 563.644531,90.6904297 C563.325519,89.0315672 562.942711,86.2721547 562.496094,82.4121094 L562.496094,71.5498047 C562.464193,68.3596846 563.118157,66.7646484 564.458008,66.7646484 C564.681316,66.7646484 564.920572,66.8284499 565.175781,66.9560547 C565.303386,69.8909652 565.829748,74.2613642 566.754883,80.0673828 C567.073895,80.6416044 567.520505,81.4710232 568.094727,82.5556641 C569.211269,85.235365 571.013659,87.3248623 573.501953,88.8242188 C574.778001,89.6217488 576.94725,90.514969 580.009766,91.5039062 C580.64779,91.6953135 582.131173,92.1100229 584.459961,92.7480469 C586.055021,93.1946637 588.22427,93.5296213 590.967773,93.7529297 C591.765303,92.5087828 593.009432,91.6953144 594.700195,91.3125 C596.933279,90.833982 598.448564,90.3076201 599.246094,89.7333984 C599.788414,89.3824852 600.346677,88.4733146 600.920898,87.0058594 C601.399416,85.7936137 601.861977,84.5654359 602.308594,83.3212891 C602.595705,82.2685494 603.058265,80.5937615 603.696289,78.296875 C603.632487,77.9140606 603.568685,77.3398476 603.504883,76.5742188 C603.536784,74.7558503 603.106124,72.7461048 602.212891,70.5449219 C601.255855,68.1523318 600.075528,66.4934942 598.671875,65.5683594 C598.384764,64.9303354 597.874353,64.1487676 597.140625,63.2236328 C595.290355,61.979486 592.594744,60.3365988 589.053711,58.2949219 C588.319983,57.6249967 587.187508,56.7477268 585.65625,55.6630859 C580.647761,53.2385946 576.245462,50.1601749 572.449219,46.4277344 C570.981763,44.9602791 569.578132,42.8707818 568.238281,40.1591797 C568.20638,39.8401677 568.094728,39.3457065 567.90332,38.6757812 C567.711913,38.324868 567.408856,37.9739601 566.994141,37.6230469 C566.962239,37.5592445 566.882488,37.3997409 566.754883,37.1445312 C566.722982,36.2193964 566.707031,35.2942755 566.707031,34.3691406 C566.579426,33.156895 566.244469,32.231774 565.702148,31.59375 C565.73405,30.317702 565.797851,28.3877082 565.893555,25.8037109 C565.734049,25.6442049 565.526694,25.4049495 565.271484,25.0859375 C565.207682,24.7988267 565.207682,24.2565144 565.271484,23.4589844 C565.462892,23.2037748 565.702147,22.8688172 565.989258,22.4541016 C565.989258,22.4222004 566.403967,20.6198095 567.233398,17.046875 C567.711916,14.8456921 568.908194,12.9316488 570.822266,11.3046875 C570.981772,11.5598971 571.268878,11.9746065 571.683594,12.5488281 C571.811199,11.7193969 572.225908,10.5709709 572.927734,9.10351562 C575.926447,5.7538895 579.036768,3.16993097 582.258789,1.3515625 C583.247726,1.3196613 584.603507,1.23990949 586.326172,1.11230469 C588.176442,0.952798682 590.808251,0.617841094 594.22168,0.107421875 C594.349284,0.23502668 594.57259,0.426431016 594.891602,0.681640625 C596.70997,1.00065264 599.389631,1.33561022 602.930664,1.68652344 C605.48276,1.78222704 607.029945,1.78222704 607.572266,1.68652344 C610.028658,1.30370902 611.097332,1.11230469 610.77832,1.11230469 C611.448246,1.11230469 611.974607,1.2718083 612.357422,1.59082031 C612.357422,1.62272151 611.926762,10.7144275 611.06543,28.8662109 C610.586912,29.1533217 609.757493,29.2490239 608.577148,29.1533203 C608.162433,27.3349518 607.955078,25.9632208 607.955078,25.0380859 C607.986979,22.1031754 607.317064,19.2640111 605.945313,16.5205078 C604.477857,13.4579925 602.531913,11.4163463 600.107422,10.3955078 C598.097646,9.53417538 595.689142,9.10351562 592.881836,9.10351562 C589.819321,9.10351562 587.442717,9.5660761 585.751953,10.4912109 C585.432941,10.4593097 585.002281,10.5071608 584.459961,10.6347656 C582.801098,11.6237029 581.301765,13.1708879 579.961914,15.2763672 C578.558261,17.4775501 577.840495,19.4713452 577.808594,21.2578125 C577.776693,21.5768245 577.88037,22.2307893 578.119629,23.2197266 C578.358888,24.2086638 578.494466,24.9742811 578.526367,25.5166016 C578.526367,28.8343265 580.025701,32.0403491 583.024414,35.1347656 C584.364265,36.5065173 586.613265,38.2770074 589.771484,40.4462891 C591.23894,41.0843131 593.360338,42.1370369 596.135742,43.6044922 C603.696327,48.166364 608.928045,52.760068 611.831055,57.3857422 C612.086264,58.0875686 612.564775,59.2678954 613.266602,60.9267578 C613.777021,62.1071023 614.271482,64.0530463 614.75,66.7646484 C615.324222,69.9547686 615.563477,72.9055854 615.467773,75.6171875 L615.467773,75.6171875 Z" id="AdventurOS" fill="#FFFFFF" sketch:type="MSShapeGroup"></path>
                <path d="M224.463,93.345 C223.707,93.561 223.464,93.588 221.844,93.588 L207.75,93.588 C205.887,93.588 205.05,93.534 204.024,93.372 L204.024,96.747 C205.131,96.612 205.806,96.585 207.696,96.585 L221.871,96.585 C221.25,97.881 220.413,98.988 219.306,100.014 C218.199,101.067 217.173,101.688 215.364,102.498 C216.579,103.416 216.984,103.821 217.794,104.955 C219.063,104.253 219.954,103.659 221.034,102.714 C222.681,101.31 224.247,99.285 225.192,97.287 C225.894,95.883 225.894,95.856 226.272,95.397 L224.463,93.345 Z M211.638,98.799 C211.746,99.366 211.773,99.609 211.773,100.419 C211.773,105.522 210.909,107.844 208.155,110.031 C206.832,111.084 205.617,111.678 203.43,112.326 C204.51,113.46 204.861,113.946 205.563,115.404 C208.938,114 210.909,112.623 212.529,110.544 C214.365,108.195 215.094,105.603 215.202,100.986 C215.229,99.339 215.229,99.312 215.31,98.799 L211.638,98.799 Z M244.038,94.938 C245.01,95.991 245.82,97.152 246.63,98.637 L248.655,97.503 C247.764,95.856 247.17,95.019 246.063,93.858 L244.038,94.938 Z M251.544,95.802 C250.734,94.371 250.032,93.426 248.952,92.319 L247.008,93.372 C248.007,94.452 248.763,95.559 249.546,96.963 L251.544,95.802 Z M238.395,115.215 C238.314,114.324 238.287,113.622 238.287,112.218 L238.287,105.09 C238.287,104.334 238.26,104.01 238.179,103.254 C238.395,103.389 238.476,103.416 239.097,103.713 C243.606,105.792 246.414,107.331 248.655,108.87 L250.545,105.684 C246.225,103.254 241.986,101.283 238.287,99.987 L238.287,94.965 C238.287,93.291 238.287,92.94 238.395,92.13 L234.696,92.13 C234.804,92.859 234.858,93.561 234.858,94.884 L234.858,112.191 C234.858,113.622 234.831,114.351 234.696,115.215 L238.395,115.215 Z M258.321,108.762 C258.699,108.303 258.834,108.114 259.239,107.655 C261.129,105.387 262.938,103.146 264.072,101.634 C265.179,100.149 265.287,100.068 265.719,100.068 C266.178,100.068 266.178,100.068 267.906,101.958 C272.712,107.196 273.927,108.411 279.327,113.352 L281.028,109.653 C280.38,109.248 279.894,108.87 278.463,107.628 C275.277,104.874 272.496,102.12 269.715,99.015 C267.663,96.693 267.015,96.261 265.692,96.261 C265.044,96.261 264.423,96.423 263.856,96.801 C263.316,97.125 262.749,97.719 261.831,98.907 C260.427,100.743 257.781,103.875 256.998,104.658 C256.674,104.982 256.458,105.171 256.026,105.441 L258.321,108.762 Z M272.523,96.963 C273.549,98.043 274.251,99.069 275.142,100.689 L277.167,99.555 C276.195,97.773 275.682,97.071 274.548,95.883 L272.523,96.963 Z M280.029,97.854 C279.192,96.315 278.544,95.478 277.464,94.344 L275.52,95.397 C276.519,96.504 277.221,97.476 278.058,98.988 L280.029,97.854 Z M285.294,96.666 C287.805,98.07 290.019,99.852 292.179,102.147 L294.501,99.204 C292.422,97.233 290.748,95.991 287.535,93.993 L285.294,96.666 Z M286.239,114.486 C286.86,114.27 286.941,114.243 288.021,114.027 C292.206,113.136 295.554,111.813 298.308,109.977 C302.007,107.52 304.572,104.334 306.867,99.393 C305.49,98.421 305.058,98.016 304.005,96.747 C303.195,98.934 302.439,100.419 301.251,102.147 C299.118,105.225 296.607,107.304 293.232,108.762 C290.775,109.842 287.562,110.625 285.24,110.76 L286.239,114.486 Z M329.52,92.076 C328.602,92.589 327.819,92.886 326.253,93.345 C322.932,94.29 318.315,94.911 314.697,94.911 C314.292,94.911 313.86,94.911 313.023,94.857 C313.617,96.153 313.752,96.558 314.022,97.773 C318.477,97.557 319.314,97.476 321.501,97.152 C321.501,99.042 321.501,100.095 321.447,101.229 L314.535,101.229 C312.699,101.229 312.24,101.202 311.241,101.04 L311.241,104.28 C312.24,104.172 312.753,104.145 314.481,104.145 L321.15,104.145 C321.042,105.036 320.961,105.495 320.853,105.954 C320.394,107.709 319.368,109.248 317.748,110.544 C316.533,111.543 315.507,112.11 313.563,112.812 C314.697,113.784 315.129,114.297 315.912,115.674 C317.154,115.107 317.667,114.81 318.423,114.324 C320.313,113.109 321.879,111.597 322.824,110.031 C323.769,108.465 324.336,106.656 324.633,104.145 L330.6,104.145 C332.328,104.145 332.841,104.172 333.84,104.28 L333.84,101.04 C332.841,101.202 332.382,101.229 330.546,101.229 L324.822,101.229 C324.876,100.311 324.876,100.311 324.903,96.666 C327.009,96.261 327.873,96.045 329.412,95.559 C331.356,94.911 331.356,94.911 331.68,94.83 L329.52,92.076 Z M353.658,111.624 C354.117,109.194 354.414,107.277 354.819,104.307 C355.116,102.066 355.116,102.066 355.44,101.229 L353.955,99.933 C353.307,100.122 352.902,100.176 351.957,100.176 L345.126,100.176 C344.073,100.176 343.317,100.122 342.642,100.014 L342.642,103.065 C343.344,102.984 343.749,102.957 345.045,102.957 L351.741,102.957 C351.471,105.414 350.904,109.221 350.445,111.624 L342.48,111.624 C341.238,111.624 340.752,111.597 339.996,111.462 L339.996,114.54 C340.725,114.459 341.292,114.432 342.48,114.432 L356.493,114.432 C357.627,114.432 358.248,114.459 358.977,114.54 L358.977,111.462 C358.248,111.597 357.735,111.624 356.493,111.624 L353.658,111.624 Z M369.291,92.886 C369.399,93.615 369.399,93.858 369.399,95.343 C369.399,102.903 368.778,106.386 366.834,109.491 C366.024,110.787 365.376,111.516 364.053,112.596 C365.322,113.46 365.727,113.865 366.78,115.215 C368.562,113.46 369.588,112.083 370.506,110.22 C371.91,107.439 372.504,104.388 372.693,99.123 C372.855,93.831 372.855,93.831 372.963,93.075 L369.291,92.886 Z M376.446,92.697 C376.527,93.21 376.554,93.804 376.554,94.479 L376.554,95.289 L376.419,110.517 C376.392,112.002 376.365,112.596 376.176,113.379 L377.904,115.215 C378.255,115.053 378.471,114.945 379.065,114.729 C381.873,113.622 383.277,112.812 384.816,111.489 C386.598,109.896 388.002,107.871 389.109,105.198 C387.867,104.226 387.516,103.875 386.571,102.66 C385.95,104.658 385.167,106.143 383.925,107.601 C382.764,108.978 381.684,109.788 379.794,110.679 L379.929,95.316 C379.956,93.993 379.983,93.534 380.118,92.751 L376.446,92.697 Z M415.191,112.083 C411.924,108.924 411.924,108.924 411.249,108.33 C409.413,106.683 407.955,105.549 406.254,104.415 C407.901,102.201 409.224,99.852 410.466,96.963 C410.763,96.288 410.979,95.91 411.33,95.505 L409.548,93.669 C408.873,93.912 408.657,93.939 407.145,93.966 L397.641,94.101 L396.993,94.101 C395.886,94.101 395.373,94.074 394.617,93.939 L394.725,97.395 C395.643,97.26 396.372,97.206 397.668,97.179 C406.173,97.044 406.173,97.044 406.605,97.017 L406.308,97.719 C404.553,101.931 401.313,105.846 397.236,108.708 C395.211,110.139 393.915,110.868 391.836,111.678 C392.943,112.839 393.267,113.271 394.023,114.675 C398.154,112.65 401.259,110.274 404.31,106.872 C407.253,109.113 410.358,112.137 412.599,114.891 L415.191,112.083 Z" id="アドベンチュルス" fill="#FFFFFF" sketch:type="MSShapeGroup"></path>
            </g>
        </g>
    </g>
</svg>